<svg viewBox="0 0 920 920" xmlns="http://www.w3.org/2000/svg"><style>:root{background-color:#fff}text{font-size:100px;transform:translateX(calc(50px - .5ch));color:#000}</style><path stroke="#000" stroke-width="2" d="M10 310h900M10 610h900M310 10v900M610 10v900"/><path stroke="#000" d="M10 110h900M10 210h900M110 10v900M210 10v900M10 410h900M10 510h900M410 10v900M510 10v900M10 710h900M10 810h900M710 10v900M810 10v900"/><text x="10" y="95">8</text><text x="210" y="195">3</text><text x="310" y="195">6</text><text x="110" y="295">7</text><text x="410" y="295">9</text><text x="610" y="295">2</text><text x="110" y="395">5</text><text x="510" y="395">7</text><text x="410" y="495">4</text><text x="510" y="495">5</text><text x="610" y="495">7</text><text x="310" y="595">1</text><text x="710" y="595">3</text><text x="210" y="695">1</text><text x="710" y="695">6</text><text x="810" y="695">8</text><text x="210" y="795">8</text><text x="310" y="795">5</text><text x="710" y="795">1</text><text x="110" y="895">9</text><text x="610" y="895">4</text></svg>